<svg xmlns="http://www.w3.org/2000/svg" xmlns:xlink="http://www.w3.org/1999/xlink" id="Calque_1" x="0" y="0" enable-background="new 0 0 595.3 841.9" version="1.1" viewBox="0 0 595.3 841.9" xml:space="preserve"><style type="text/css">.st0{fill:#fff}</style><g id="XMLID_1_"><path id="XMLID_2_" d="M464.8,331.1H290.4h-6.2H109.9c-7.3,0-13.3,5.9-13.3,13.3v24.4c0,7.3,5.9,13.3,13.3,13.3h38.5 c7.3,0,13.3,5.9,13.3,13.3V562c0,7.3,5.9,13.3,13.3,13.3h37.2c7.3,0,13.3-5.9,13.3-13.3V395.3c0-7.3,5.9-13.3,13.3-13.3h45.6h6.2 H336c7.3,0,13.3,5.9,13.3,13.3V562c0,7.3,5.9,13.3,13.3,13.3h37.2c7.3,0,13.3-5.9,13.3-13.3V395.3c0-7.3,5.9-13.3,13.3-13.3h38.5 c7.3,0,13.3-5.9,13.3-13.3v-24.4C478,337.1,472.1,331.1,464.8,331.1z" class="st0"/><path id="XMLID_6_" d="M307.2,521.6h-39.7c-3.9,0-7,3.1-7,7v39.7c0,3.9,3.1,7,7,7h39.7c3.9,0,7-3.1,7-7v-39.7 C314.2,524.7,311,521.6,307.2,521.6z" class="st0"/><path id="XMLID_7_" d="M307.2,434.4h-39.7c-3.9,0-7,3.1-7,7v39.7c0,3.9,3.1,7,7,7h39.7c3.9,0,7-3.1,7-7v-39.7 C314.2,437.6,311,434.4,307.2,434.4z" class="st0"/></g></svg>